HIERARCHY
ROOT Hips
{
	OFFSET -0.001795 -0.223333 0.028219
	CHANNELS 6 Xposition Yposition Zposition Zrotation Yrotation Xrotation 
	JOINT LeftUpLeg
	{
		OFFSET 0.069520 -0.091406 -0.006815
		CHANNELS 3 Zrotation Yrotation Xrotation
		JOINT LeftLeg
		{
			OFFSET 0.034277 -0.375199 -0.004496
			CHANNELS 3 Zrotation Yrotation Xrotation
			JOINT LeftFoot
			{
				OFFSET -0.013596 -0.397961 -0.043693
				CHANNELS 3 Zrotation Yrotation Xrotation
				JOINT LeftToe
				{
					OFFSET 0.026358 -0.055791 0.119288
					CHANNELS 3 Zrotation Yrotation Xrotation
					End Site
					{
						OFFSET 0.000000 0.000000 0.000000
					}
				}
			}
		}
	}
	JOINT RightUpLeg
	{
		OFFSET -0.067670 -0.090522 -0.004320
		CHANNELS 3 Zrotation Yrotation Xrotation
		JOINT RightLeg
		{
			OFFSET -0.038290 -0.382569 -0.008850
			CHANNELS 3 Zrotation Yrotation Xrotation
			JOINT RightFoot
			{
				OFFSET 0.015774 -0.398415 -0.042312
				CHANNELS 3 Zrotation Yrotation Xrotation
				JOINT RightToe
				{
					OFFSET -0.025372 -0.048144 0.123348
					CHANNELS 3 Zrotation Yrotation Xrotation
					End Site
					{
						OFFSET 0.000000 0.000000 0.000000
					}
				}
			}
		}
	}
	JOINT Spine
	{
		OFFSET -0.002533 0.108963 -0.026696
		CHANNELS 3 Zrotation Yrotation Xrotation
		JOINT Spine1
		{
			OFFSET 0.005487 0.135180 0.001092
			CHANNELS 3 Zrotation Yrotation Xrotation
			JOINT Spine2
			{
				OFFSET 0.001457 0.052922 0.025425
				CHANNELS 3 Zrotation Yrotation Xrotation
				JOINT Neck
				{
					OFFSET -0.002778 0.213870 -0.042857
					CHANNELS 3 Zrotation Yrotation Xrotation
					JOINT Head
					{
						OFFSET 0.005152 0.064970 0.051349
						CHANNELS 3 Zrotation Yrotation Xrotation
						End Site
						{
							OFFSET 0.000000 0.000000 0.000000
						}
					}
				}
				JOINT LeftShoulder
				{
					OFFSET 0.078845 0.121749 -0.034090
					CHANNELS 3 Zrotation Yrotation Xrotation
					JOINT LeftArm
					{
						OFFSET 0.090977 0.030469 -0.008868
						CHANNELS 3 Zrotation Yrotation Xrotation
						JOINT LeftForeArm
						{
							OFFSET 0.259612 -0.012772 -0.027456
							CHANNELS 3 Zrotation Yrotation Xrotation
							JOINT LeftHand
							{
								OFFSET 0.249234 0.008986 -0.001171
								CHANNELS 3 Zrotation Yrotation Xrotation
								End Site
								{
									OFFSET 0.000000 0.000000 0.000000
								}
							}
						}
					}
				}
				JOINT RightShoulder
				{
					OFFSET -0.081759 0.118833 -0.038615
					CHANNELS 3 Zrotation Yrotation Xrotation
					JOINT RightArm
					{
						OFFSET -0.096012 0.032551 -0.009143
						CHANNELS 3 Zrotation Yrotation Xrotation
						JOINT RightForeArm
						{
							OFFSET -0.253742 -0.013329 -0.021401
							CHANNELS 3 Zrotation Yrotation Xrotation
							JOINT RightHand
							{
								OFFSET -0.255298 0.007772 -0.005559
								CHANNELS 3 Zrotation Yrotation Xrotation
								End Site
								{
									OFFSET 0.000000 0.000000 0.000000
								}
							}
						}
					}
				}
			}
		}
	}
}
MOTION
Frames: 13
Frame Time: 0.050000
-0.040701 0.952659 -0.027044 -5.141471 11.863127 16.809425 6.173460 -1.337282 -18.085165 9.413643 0.067302 -8.383248 -6.300486 -1.535435 17.465525 0.000000 0.000000 0.000000 2.135383 0.636217 -5.967774 0.622481 -0.790250 -14.935884 -5.115919 -13.524804 18.140018 0.000000 0.000000 0.000000 -4.530777 0.288423 1.830278 -11.258951 4.644272 -1.809543 14.152441 23.861259 2.623087 1.582922 2.433162 -15.896390 0.000000 0.000000 0.000000 -9.030399 -8.796508 -1.104731 -52.524036 -26.635598 5.277640 -35.430164 -60.660248 15.550292 0.000000 0.000000 0.000000 -3.958879 32.185920 13.308336 0.162623 58.248362 0.394370 -5.948222 1.570982 0.001286 0.000000 0.000000 0.000000 
-0.040004 0.951981 -0.025861 -5.107140 12.571290 16.981219 6.061334 -1.408164 -18.689820 9.552687 0.010674 -7.838966 -6.560343 -2.003841 17.138270 0.000000 0.000000 0.000000 2.334200 0.658784 -6.145340 -0.041337 -0.785185 -14.622718 -5.037807 -13.274260 17.983826 0.000000 0.000000 0.000000 -4.468175 0.289980 0.923349 -11.156839 4.624430 -1.022582 14.235976 23.266840 2.176394 1.348587 2.614327 -16.457956 0.000000 0.000000 0.000000 -8.358083 -8.147364 -1.029891 -52.521578 -26.597822 5.144007 -36.058343 -61.118388 16.151941 0.000000 0.000000 0.000000 -3.692563 32.029685 13.329249 5.053420 58.394075 2.740599 -8.241271 3.814848 -0.105022 0.000000 0.000000 0.000000 
-0.038914 0.950973 -0.024269 -5.140135 12.978367 16.648778 5.730328 -1.396240 -18.092014 10.058408 0.039826 -8.282147 -6.766163 -2.374599 16.892403 0.000000 0.000000 0.000000 2.477161 0.634065 -5.900009 -0.610521 -0.756994 -14.134309 -4.813934 -12.807486 17.656092 0.000000 0.000000 0.000000 -4.509251 0.287719 0.525351 -10.766138 4.482139 -0.701551 14.216750 22.771028 2.096302 0.607901 2.900343 -15.939563 0.000000 0.000000 0.000000 -8.922275 -7.026048 -1.576722 -51.733787 -25.359404 4.671077 -40.469489 -61.971568 19.219248 0.000000 0.000000 0.000000 -2.633252 31.120242 13.330664 11.957362 57.901647 5.934135 -10.983254 8.880436 -0.475838 0.000000 0.000000 0.000000 
-0.037488 0.949891 -0.022357 -5.415602 13.870448 16.419562 5.583118 -1.418198 -17.966975 10.730683 0.027834 -8.371491 -7.140582 -3.018337 16.528283 0.000000 0.000000 0.000000 3.059338 0.622252 -5.764555 -0.950298 -0.722509 -13.584288 -5.265230 -13.449632 17.200106 0.000000 0.000000 0.000000 -4.096880 0.254048 0.172383 -10.566289 4.388734 -0.921673 14.343237 22.102264 2.541779 0.416946 3.125082 -16.578965 0.000000 0.000000 0.000000 -7.965241 -5.711273 -1.667386 -52.424454 -24.046153 3.893772 -49.828742 -64.228528 26.057059 0.000000 0.000000 0.000000 -2.131290 28.993032 12.525549 22.371866 55.058879 10.237536 -14.858060 17.869431 -1.406995 0.000000 0.000000 0.000000 
-0.035667 0.949110 -0.020115 -5.498925 14.503877 16.247632 5.223830 -1.431799 -17.668936 11.345215 0.035282 -8.634817 -7.440866 -3.514224 16.298059 0.000000 0.000000 0.000000 3.098314 0.614134 -5.650192 -1.501790 -0.679603 -13.029153 -4.819618 -12.552396 16.994132 0.000000 0.000000 0.000000 -3.904381 0.239074 -0.250039 -9.684776 4.027673 -1.064844 13.956749 21.307832 3.019887 0.045457 3.362937 -16.757707 0.000000 0.000000 0.000000 -8.725174 -3.894538 -2.561147 -51.585816 -22.086553 3.099381 -62.042813 -65.856439 35.574504 0.000000 0.000000 0.000000 -0.748132 26.234435 11.776154 32.532569 50.460313 13.127106 -18.977029 30.149076 -2.994909 0.000000 0.000000 0.000000 
-0.033421 0.948357 -0.017700 -5.434730 14.853769 16.137147 4.962412 -1.450352 -17.596870 11.477990 -0.003209 -8.381211 -7.517726 -3.849939 15.836104 0.000000 0.000000 0.000000 2.580690 0.644745 -5.865896 -1.124912 -0.625389 -12.309958 -4.877244 -12.585948 17.173796 0.000000 0.000000 0.000000 -3.493907 0.217431 -1.271251 -9.202242 3.833577 -1.267006 13.825943 20.359540 3.999575 -0.262223 3.495612 -16.378669 0.000000 0.000000 0.000000 -7.902191 -1.612850 -2.975333 -52.226816 -20.000006 1.947314 -74.552552 -65.645263 44.838039 0.000000 0.000000 0.000000 0.618985 21.948213 10.229017 41.922267 43.801961 13.989319 -19.554611 47.442036 -4.024131 0.000000 0.000000 0.000000 
-0.030896 0.947356 -0.015272 -5.162237 15.617779 15.918229 4.504271 -1.469591 -17.300271 11.510847 -0.002342 -8.422165 -7.849929 -4.500138 15.438219 0.000000 0.000000 0.000000 2.419257 0.626169 -5.649204 -1.545468 -0.583933 -11.846811 -5.201152 -13.024864 17.238716 0.000000 0.000000 0.000000 -2.955965 0.189061 -1.937854 -8.755423 3.653110 -1.419230 13.298059 19.208128 4.639870 -0.476836 3.525784 -15.731889 0.000000 0.000000 0.000000 -7.618432 0.060121 -3.387770 -51.897532 -18.185914 1.053631 -82.941894 -64.979383 51.068218 0.000000 0.000000 0.000000 1.624376 18.236286 8.794257 46.764144 36.725560 12.210666 -11.830156 63.878429 0.349142 0.000000 0.000000 0.000000 
-0.028657 0.946233 -0.013383 -4.583954 15.528441 15.661566 3.790352 -1.481659 -16.990069 11.404585 -0.058966 -7.923341 -7.725645 -4.690169 14.790032 0.000000 0.000000 0.000000 1.226289 0.586156 -5.292155 -1.208277 -0.552498 -11.385876 -4.744989 -12.193532 16.725415 0.000000 0.000000 0.000000 -2.838797 0.184683 -2.830292 -8.190701 3.441424 -1.102968 12.891182 18.087374 5.072908 -0.782806 3.702652 -16.120607 0.000000 0.000000 0.000000 -6.334796 1.833584 -3.372705 -53.018785 -16.936054 0.199477 -86.208986 -63.931429 53.097562 0.000000 0.000000 0.000000 2.350510 16.032315 7.893770 48.469494 33.436978 10.956192 5.102650 72.953417 13.551563 0.000000 0.000000 0.000000 
-0.027152 0.945239 -0.012257 -4.265792 14.677648 14.855665 3.434851 -1.385596 -15.967169 11.150121 -0.100181 -7.505580 -7.192070 -4.397246 14.001705 0.000000 0.000000 0.000000 0.643878 0.563199 -5.113533 -1.340942 -0.461875 -10.321704 -4.486004 -11.845727 16.496024 0.000000 0.000000 0.000000 -2.610568 0.175244 -3.075550 -8.255481 3.495159 -1.387863 12.971428 17.596760 5.643478 -0.711343 3.548445 -15.539076 0.000000 0.000000 0.000000 -5.513972 2.617400 -3.225401 -53.137784 -15.919448 -0.413337 -85.766196 -62.285456 51.476128 0.000000 0.000000 0.000000 2.603310 15.480390 7.599910 47.930098 33.494159 10.703720 12.378545 73.887468 19.137813 0.000000 0.000000 0.000000 
-0.026705 0.944723 -0.012271 -4.327725 13.376416 14.350815 3.588916 -1.305354 -15.459393 10.856074 -0.164393 -6.859711 -6.391110 -3.646537 13.336974 0.000000 0.000000 0.000000 0.044889 0.538524 -4.914119 -1.067196 -0.454365 -10.148368 -3.371968 -10.056602 16.484941 0.000000 0.000000 0.000000 -2.200330 0.171530 -3.505100 -8.190712 3.494198 -1.543099 13.082276 17.551294 5.835545 -1.089402 3.661995 -15.205614 0.000000 0.000000 0.000000 -4.602017 3.291873 -3.032599 -53.484550 -15.151532 -0.901171 -81.704964 -60.938111 47.279571 0.000000 0.000000 0.000000 2.693448 16.577750 8.042591 47.183286 35.895903 11.565786 5.217221 68.952640 11.812640 0.000000 0.000000 0.000000 
-0.026930 0.944696 -0.012860 -4.195124 11.595520 13.674453 3.496660 -1.187434 -14.378045 10.606774 -0.181344 -6.697387 -5.496534 -2.553308 13.035676 0.000000 0.000000 0.000000 -0.312109 0.539163 -4.981582 -1.302585 -0.381075 -9.284382 -2.559650 -8.850230 16.150252 0.000000 0.000000 0.000000 -1.866522 0.172972 -3.957638 -8.801153 3.797312 -0.926518 13.625028 17.876556 5.377718 -1.031881 3.502194 -14.886256 0.000000 0.000000 0.000000 -4.141385 3.395123 -2.812259 -53.738692 -14.773213 -1.061888 -77.252799 -59.400576 42.903063 0.000000 0.000000 0.000000 1.959031 18.158174 8.430695 47.819023 41.109836 14.547671 -1.341902 58.585294 4.982808 0.000000 0.000000 0.000000 
-0.027215 0.944575 -0.013707 -4.071586 10.305656 12.824925 3.587949 -1.066069 -13.182065 10.065104 -0.167590 -6.670631 -4.845021 -1.785196 12.755788 0.000000 0.000000 0.000000 -0.565051 0.518406 -4.806962 -1.382791 -0.329849 -8.607907 -2.197405 -8.411864 16.153386 0.000000 0.000000 0.000000 -1.629743 0.173437 -4.211120 -8.940068 3.902077 -0.600164 14.020165 18.135980 5.460242 -1.514062 3.533199 -13.269177 0.000000 0.000000 0.000000 -3.867202 3.842136 -2.811013 -54.021680 -14.127508 -1.417206 -74.903281 -56.993375 39.445323 0.000000 0.000000 0.000000 1.965596 19.023163 8.752191 48.446918 44.262174 16.467823 -1.363699 50.679518 3.545424 0.000000 0.000000 0.000000 
-0.026982 0.944803 -0.014083 -4.257602 9.535265 12.494426 3.854070 -0.993730 -12.508425 9.844052 -0.128324 -6.971305 -4.473086 -1.264232 12.763096 0.000000 0.000000 0.000000 -0.548714 0.533027 -4.981542 -1.225205 -0.315484 -8.299100 -2.036518 -8.336714 16.705129 0.000000 0.000000 0.000000 -1.139812 0.182785 -4.940860 -9.007735 3.966646 -0.191613 14.195731 17.832988 5.445849 -1.555816 3.497096 -13.220419 0.000000 0.000000 0.000000 -3.926510 4.199832 -2.894192 -53.634298 -13.502925 -1.611295 -74.078620 -56.229973 38.593595 0.000000 0.000000 0.000000 1.510205 19.062429 8.532932 50.345961 44.167224 17.258478 0.141427 49.066933 3.911006 0.000000 0.000000 0.000000 
